<svg width="60" height="60" viewBox="0 0 120 120" fill="none" xmlns="http://www.w3.org/2000/svg">
<path fill-rule="evenodd" clip-rule="evenodd" d="M60 120C93.1371 120 120 93.1371 120 60C120 26.8629 93.1371 0 60 0C26.8629 0 0 26.8629 0 60C0 93.1371 26.8629 120 60 120ZM60 116C90.9279 116 116 90.9279 116 60C116 29.0721 90.9279 4 60 4C29.0721 4 4 29.0721 4 60C4 90.9279 29.0721 116 60 116Z" fill="#272833"/>
<path d="M84.8143 43.157C82.483 39.75 79.4873 36.8491 76.0071 34.6285H75.9857C71.206 31.5964 65.6604 29.9907 60 30C59.7 30 59.4214 30 59.1214 30.0215C54.482 30.1491 49.9379 31.3677 45.8572 33.5786L45.7715 33.6C40.5276 36.4359 36.2404 40.7603 33.45 46.0284C31.3356 50.0172 30.1627 54.4372 30.0215 58.9496V58.971C30.0001 59.3139 30.0001 59.6567 30.0001 59.9996C29.9897 65.5651 31.5413 71.0219 34.4786 75.7493C36.9181 79.6922 40.2322 83.0209 44.1643 85.4778C48.9139 88.4412 54.4017 90.0081 60 89.9991C60.1432 90.0027 60.2865 89.9955 60.4286 89.9777C65.3506 89.9371 70.1838 88.6625 74.4857 86.2706H74.5071C79.7886 83.325 84.0712 78.8709 86.8071 73.4779C88.7491 69.605 89.8309 65.3581 89.9785 61.0281C90 60.6853 90 60.3424 90 59.9996C90.0107 53.9907 88.2029 48.1192 84.8143 43.157ZM81.45 45.8355L77.2285 53.1425L77.2136 53.1687L70.2004 55.0486L64.9504 49.7987L66.8304 42.7856L66.8571 42.7713L74.1643 38.5499C77.0607 40.4606 79.5393 42.9391 81.45 45.8355ZM71.4857 83.0135C68.3892 84.5698 65.0037 85.4673 61.5429 85.6492L57.3214 78.3207L57.3127 78.3057L59.1881 71.3092L66.3585 69.3881L71.4857 74.5151V83.0135ZM53.6415 50.6112L48.5143 45.4841V36.9856C51.6108 35.4294 54.9963 34.532 58.4571 34.35L62.6786 41.6784L62.6874 41.6934L60.8119 48.69L53.6415 50.6112ZM45.4843 48.514L50.6115 53.6412L48.6905 60.8115L41.6938 62.6869L41.6786 62.6781L34.35 58.4567C34.532 54.996 35.4294 51.6105 36.9858 48.514H45.4843ZM38.55 74.1636L42.7715 66.8566L42.7865 66.8305L49.7996 64.9506L55.0496 70.2005L53.1697 77.2135L53.1429 77.2279L45.8357 81.4492C42.9393 79.5385 40.4608 77.06 38.55 74.1636ZM74.5157 71.4851L69.3885 66.358L71.3096 59.1877L78.3062 57.3123L78.3212 57.321L85.6497 61.5424C85.4678 65.0032 84.5704 68.3887 83.014 71.4851H74.5157Z" fill="black"/>
</svg>
